<svg width="17" height="17" viewBox="0 0 17 17" fill="none" xmlns="http://www.w3.org/2000/svg">
<path fill-rule="evenodd" clip-rule="evenodd" d="M2.47046 2.47046C4.05167 0.888574 6.1963 0 8.43281 0C10.6693 0 12.8141 0.888574 14.3952 2.47046C15.977 4.05167 16.8656 6.1963 16.8656 8.43281C16.8656 10.6693 15.977 12.8141 14.3952 14.3952C12.814 15.977 10.6693 16.8656 8.43281 16.8656C6.1963 16.8656 4.05157 15.977 2.47046 14.3952C0.888574 12.814 0 10.6693 0 8.43281C0 6.1963 0.888574 4.05157 2.47046 2.47046ZM10.9626 10.119C11.3405 10.1388 11.6851 9.90481 11.8061 9.5459L11.8061 9.5459C11.8765 9.32771 11.8551 9.09054 11.7468 8.88816C11.6385 8.68657 11.4527 8.53715 11.2322 8.4747H11.233L9.27635 7.82566V4.2168C9.27635 3.75117 8.89847 3.37328 8.43283 3.37328C7.96719 3.37328 7.58931 3.75117 7.58931 4.2168V8.4328C7.58852 8.79565 7.81935 9.11821 8.16324 9.23363L10.693 10.0771C10.7807 10.1032 10.8709 10.1167 10.9626 10.119Z" fill="white"/>
</svg>
