<svg width="18" height="18" viewBox="0 0 18 18" fill="none" xmlns="http://www.w3.org/2000/svg">
<path d="M4.15385 4.5H10.3846C11.4361 4.5 12.2885 5.35238 12.2885 6.40385V11.9423C12.2885 12.9938 11.4361 13.8462 10.3846 13.8462H4.15385C3.10238 13.8462 2.25 12.9938 2.25 11.9423V6.40385C2.25 5.35238 3.10238 4.5 4.15385 4.5Z" stroke="#1B1919"/>
<path d="M12.2802 6.33245L14.0882 5.60919C14.7094 5.36069 15.4145 5.66287 15.663 6.28412C15.7203 6.42723 15.7497 6.57995 15.7497 6.73408V11.612C15.7497 12.2811 15.2073 12.8236 14.5381 12.8236C14.384 12.8236 14.2313 12.7942 14.0882 12.7369L12.2884 12.017L12.2802 6.33245Z" stroke="#1B1919"/>
</svg>
