<svg width="8" height="7" viewBox="0 0 8 7" fill="none" xmlns="http://www.w3.org/2000/svg">
<path fill-rule="evenodd" clip-rule="evenodd" d="M5.92847 1.80088L2.94322 4.60332C2.80601 4.73198 2.5826 4.73198 2.44539 4.60332C2.30818 4.47466 2.30818 4.26518 2.44539 4.13652L5.43063 1.33408C5.56785 1.20542 5.79125 1.20542 5.92847 1.33408C5.99707 1.39841 6.03226 1.48253 6.03226 1.56665C6.03226 1.65242 5.99707 1.73655 5.92847 1.80088ZM7.04864 1.45135L6.30101 0.751977C5.95798 0.430331 5.40034 0.430331 5.05731 0.751977L1.85217 3.76225C1.7519 3.85462 1.67802 3.97008 1.63404 4.09709L0.990196 6.02037C0.903999 6.27439 1.15907 6.51356 1.42998 6.43439L3.48464 5.82903C3.61834 5.78945 3.74148 5.72017 3.84175 5.62615L7.04864 2.61587C7.39167 2.29423 7.39167 1.773 7.04864 1.45135Z" fill="white"/>
</svg>
