<svg width="28" height="28" viewBox="0 0 28 28" fill="none" xmlns="http://www.w3.org/2000/svg">
<path d="M14 28C21.732 28 28 21.732 28 14C28 6.26801 21.732 0 14 0C6.26801 0 0 6.26801 0 14C0 21.732 6.26801 28 14 28Z" fill="white"/>
<path d="M17.055 8C16.3401 8.00012 15.6381 8.19054 15.021 8.55168C14.404 8.91283 13.8942 9.4317 13.544 10.055C13.1938 9.43155 12.6838 8.91259 12.0666 8.55143C11.4494 8.19028 10.7471 7.99995 10.032 8C8.93681 8.05915 7.90655 8.53826 7.15557 9.33766C6.40459 10.1371 5.99072 11.1952 6.00003 12.292C6.00003 17.885 13.544 21.787 13.544 21.787C13.544 21.787 21.088 17.887 21.088 12.292C21.0973 11.1951 20.6833 10.1368 19.9321 9.33733C19.1809 8.5379 18.1504 8.0589 17.055 8V8Z" fill="#FF0000"/>
</svg>
