<svg width="60" height="60" viewBox="0 0 60 60" fill="none" xmlns="http://www.w3.org/2000/svg">
<rect width="60" height="60" rx="20" fill="#E9F4FF"/>
<path d="M43.891 27.2254H42.7499V27.1666H29.9999V32.8333H38.0062C36.8382 36.132 33.6995 38.4999 29.9999 38.4999C25.3058 38.4999 21.4999 34.694 21.4999 29.9999C21.4999 25.3058 25.3058 21.4999 29.9999 21.4999C32.1667 21.4999 34.138 22.3173 35.639 23.6525L39.646 19.6455C37.1158 17.2875 33.7314 15.8333 29.9999 15.8333C22.1764 15.8333 15.8333 22.1764 15.8333 29.9999C15.8333 37.8235 22.1764 44.1666 29.9999 44.1666C37.8235 44.1666 44.1666 37.8235 44.1666 29.9999C44.1666 29.05 44.0688 28.1228 43.891 27.2254Z" fill="#FFC107"/>
<path d="M17.4668 23.406L22.1213 26.8195C23.3807 23.7014 26.4308 21.4999 30 21.4999C32.1668 21.4999 34.1381 22.3173 35.6391 23.6525L39.6461 19.6455C37.116 17.2875 33.7315 15.8333 30 15.8333C24.5586 15.8333 19.8397 18.9053 17.4668 23.406Z" fill="#FF3D00"/>
<path d="M30.0001 44.1667C33.6593 44.1667 36.9842 42.7663 39.4981 40.489L35.1135 36.7787C33.6912 37.8561 31.9232 38.5 30.0001 38.5C26.3153 38.5 23.1866 36.1505 22.0079 32.8716L17.3882 36.431C19.7328 41.0188 24.4942 44.1667 30.0001 44.1667Z" fill="#4CAF50"/>
<path d="M43.8911 27.2255H42.75V27.1667H30V32.8334H38.0063C37.4453 34.418 36.426 35.7843 35.1113 36.7795C35.112 36.7788 35.1128 36.7788 35.1135 36.7781L39.498 40.4884C39.1878 40.7703 44.1667 37.0834 44.1667 30.0001C44.1667 29.0502 44.0689 28.123 43.8911 27.2255Z" fill="#1976D2"/>
</svg>
