<svg width="20" height="20" viewBox="0 0 20 20" fill="none" xmlns="http://www.w3.org/2000/svg">
<path fill-rule="evenodd" clip-rule="evenodd" d="M3.53261 8.65936C3.54461 5.12554 6.41908 2.27054 9.9529 2.28251C13.4867 2.29455 16.3417 5.16901 16.3297 8.70284V8.7753C16.2862 11.0724 15.0036 13.1956 13.4312 14.855C12.5319 15.7889 11.5276 16.6156 10.4384 17.3188C10.1472 17.5707 9.71516 17.5707 9.42391 17.3188C7.80016 16.2619 6.37505 14.9275 5.21377 13.3767C4.17873 12.0244 3.59108 10.3831 3.53261 8.6811V8.65936Z" stroke="#6A6A6A" stroke-width="1.5" stroke-linecap="round" stroke-linejoin="round"/>
<path opacity="0.4" d="M9.93116 10.8334C11.0637 10.8334 11.9819 9.91524 11.9819 8.78266C11.9819 7.65007 11.0637 6.73193 9.93116 6.73193C8.79857 6.73193 7.88043 7.65007 7.88043 8.78266C7.88043 9.91524 8.79857 10.8334 9.93116 10.8334Z" stroke="#6A6A6A" stroke-width="1.5" stroke-linecap="round" stroke-linejoin="round"/>
</svg>
