<svg width="20" height="20" viewBox="0 0 20 20" fill="none" xmlns="http://www.w3.org/2000/svg">
<path d="M9.99992 4.00008C9.63173 4.00008 9.33325 3.7016 9.33325 3.33341C9.33325 2.96522 9.63173 2.66675 9.99992 2.66675C10.3681 2.66675 10.6666 2.96522 10.6666 3.33341C10.6666 3.7016 10.3681 4.00008 9.99992 4.00008Z" stroke="#1A1D1E" stroke-width="1.5"/>
<path d="M9.99992 10.6667C9.63173 10.6667 9.33325 10.3683 9.33325 10.0001C9.33325 9.63189 9.63173 9.33341 9.99992 9.33341C10.3681 9.33341 10.6666 9.63189 10.6666 10.0001C10.6666 10.3683 10.3681 10.6667 9.99992 10.6667Z" stroke="#1A1D1E" stroke-width="1.5"/>
<path d="M9.99992 17.3334C9.63173 17.3334 9.33325 17.0349 9.33325 16.6667C9.33325 16.2986 9.63173 16.0001 9.99992 16.0001C10.3681 16.0001 10.6666 16.2986 10.6666 16.6667C10.6666 17.0349 10.3681 17.3334 9.99992 17.3334Z" stroke="#1A1D1E" stroke-width="1.5"/>
</svg>
