<svg width="17" height="16" viewBox="0 0 17 16" fill="none" xmlns="http://www.w3.org/2000/svg">
<path fill-rule="evenodd" clip-rule="evenodd" d="M14.5 5.50002C14.8344 6.30189 15.015 6.36314 15.625 6.50002C16.3232 6.65627 16.5 7.14877 16.5 7.50002V8.50002C16.5 8.85126 16.3232 9.34377 15.625 9.50002C15.015 9.6369 14.8344 9.69814 14.5 10.5C14.1875 11.25 14.2644 11.4488 14.5988 11.9769C14.9813 12.5819 14.7588 13.0544 14.51 13.3032L13.8032 14.01C13.5544 14.2594 13.0813 14.4813 12.4775 14.0988C11.9488 13.7644 11.7738 13.6875 11 14C10.2506 14.3032 10.1369 14.515 10 15.125C9.84314 15.8232 9.35126 16 9.00002 16H8.00002C7.64877 16 7.15627 15.8232 7.00002 15.125C6.86314 14.515 6.74939 14.3032 6.00002 14C5.22626 13.6875 5.05126 13.7644 4.52251 14.0994C3.91813 14.4819 3.44563 14.2594 3.19688 14.0107L2.49 13.3038C2.24125 13.055 2.01813 12.5813 2.40125 11.9775C2.73563 11.4488 2.8125 11.25 2.5 10.5C2.16563 9.69814 1.98501 9.63689 1.37501 9.50002C0.67688 9.34376 0.5 8.85126 0.5 8.50002V7.50002C0.5 7.14877 0.67688 6.65626 1.37501 6.50002C1.98499 6.36314 2.16563 6.30189 2.5 5.50002C2.8125 4.75001 2.73562 4.55126 2.40125 4.02251C2.01875 3.41875 2.24125 2.94563 2.48937 2.69688L3.19688 1.98937C3.44563 1.74125 3.91877 1.51875 4.52251 1.90125C5.05126 2.23563 5.22627 2.3125 6.00002 2C6.74939 1.6975 6.86314 1.48501 7.00002 0.875008C7.15627 0.17688 7.64877 0 8.00002 0H9.00002C9.35126 0 9.84314 0.17688 10 0.875008C10.1369 1.48499 10.2506 1.6975 11 2C11.7738 2.3125 11.9488 2.23563 12.4775 1.90063C13.0819 1.51813 13.5544 1.74062 13.8032 1.98938L14.51 2.69626C14.7588 2.94501 14.9819 3.41877 14.5988 4.02251C14.2644 4.55126 14.1875 4.75002 14.5 5.50002ZM6 8C6 9.38062 7.11938 10.5 8.5 10.5C9.88062 10.5 11 9.38062 11 8C11 6.61938 9.88062 5.5 8.5 5.5C7.11938 5.5 6 6.61938 6 8Z" fill="white"/>
</svg>
