<svg width="29" height="30" viewBox="0 0 29 30" fill="none" xmlns="http://www.w3.org/2000/svg">
<g clip-path="url(#clip0_9_1480)">
<path d="M4.86292 17.2879L5.2035 16.9219L5.20348 16.9219L4.86292 17.2879ZM6.5955 17.9512L6.5864 17.4512H6.5864L6.5955 17.9512ZM9.41694 17.3822L9.17546 16.9444L9.17544 16.9444L9.41694 17.3822ZM10.8124 14.8811L10.3124 14.8745L10.3124 14.8752L10.8124 14.8811ZM10.8124 14.8759L10.3124 14.874V14.8759L10.8124 14.8759ZM10.8171 13.6358L10.6827 13.1542C10.4672 13.2143 10.3179 13.4102 10.3171 13.6339L10.8171 13.6358ZM14.2975 13.1911L14.2975 13.6911H14.2977L14.2975 13.1911ZM14.4186 13.1911L14.4186 12.6911L14.4184 12.6911L14.4186 13.1911ZM17.8988 13.6356L18.3988 13.6338C18.3979 13.41 18.2486 13.2141 18.0331 13.154L17.8988 13.6356ZM17.9034 14.8758H18.4034L18.4034 14.874L17.9034 14.8758ZM17.9034 14.8811L18.4034 14.8752L18.4034 14.8746L17.9034 14.8811ZM19.2989 17.3822L19.0574 17.82L19.0574 17.82L19.2989 17.3822ZM22.1203 17.9511L22.1112 18.451L22.1112 18.451L22.1203 17.9511ZM23.8528 17.2879L23.5122 16.9218L23.5122 16.9218L23.8528 17.2879ZM24.6391 15.6075L25.1384 15.6345L25.1384 15.6341L24.6391 15.6075ZM24.6404 15.5824L24.1411 15.5557L24.1411 15.5559L24.6404 15.5824ZM24.6414 15.5475L25.1414 15.5485L25.1414 15.5475L24.6414 15.5475ZM22.9299 11.7871L23.2817 11.4317L23.2817 11.4317L22.9299 11.7871ZM14.3579 8.77978L14.3579 9.27978L14.3579 9.27978L14.3579 8.77978ZM12.2931 8.92238L12.2276 8.42668L12.2196 8.42774L12.2116 8.42907L12.2931 8.92238ZM9.03049 9.76845L8.87497 9.29325L8.86026 9.29807L8.84588 9.30378L9.03049 9.76845ZM5.78578 11.7871L5.434 11.4318L5.43317 11.4326L5.78578 11.7871ZM4.07432 15.5475L3.57432 15.5475L3.57432 15.5485L4.07432 15.5475ZM4.07529 15.5825L4.5746 15.556L4.57453 15.5548L4.07529 15.5825ZM4.07663 15.6077L3.57732 15.6341L3.57735 15.6346L4.07663 15.6077ZM10.8224 9.22529L10.6968 8.7413L10.8224 9.22529ZM4.52233 17.654C5.08946 18.1817 5.83014 18.4652 6.6046 18.4511L6.5864 17.4512C6.07093 17.4606 5.58098 17.2731 5.2035 16.9219L4.52233 17.654ZM6.60459 18.4511C7.90081 18.4275 8.89247 18.2425 9.65845 17.82L9.17544 16.9444C8.61733 17.2523 7.8159 17.4289 6.5864 17.4512L6.60459 18.4511ZM9.65843 17.82C10.7482 17.2189 11.2969 16.1994 11.3124 14.8871L10.3124 14.8752C10.3006 15.8756 9.91008 16.5392 9.17546 16.9444L9.65843 17.82ZM11.3124 14.8878C11.3124 14.8822 11.3124 14.8771 11.3124 14.8759H10.3124C10.3124 14.8782 10.3124 14.8766 10.3124 14.8745L11.3124 14.8878ZM11.3124 14.8778L11.3171 13.6376L10.3171 13.6339L10.3124 14.874L11.3124 14.8778ZM10.9515 14.1174C11.5264 13.9569 12.7183 13.6911 14.2975 13.6911V12.6911C12.608 12.6911 11.3242 12.9752 10.6827 13.1542L10.9515 14.1174ZM14.2977 13.6911L14.4188 13.6911L14.4184 12.6911L14.2973 12.6911L14.2977 13.6911ZM14.4186 13.6911C15.9981 13.6911 17.1901 13.957 17.7644 14.1172L18.0331 13.154C17.3923 12.9753 16.1084 12.6911 14.4186 12.6911L14.4186 13.6911ZM17.3988 13.6375L17.4034 14.8777L18.4034 14.874L18.3988 13.6338L17.3988 13.6375ZM17.4034 14.8758C17.4034 14.8771 17.4034 14.8821 17.4035 14.8876L18.4034 14.8746C18.4034 14.8766 18.4034 14.8781 18.4034 14.8758L17.4034 14.8758ZM17.4035 14.887C17.4189 16.1993 17.9675 17.2188 19.0574 17.82L19.5404 16.9444C18.8057 16.5391 18.4152 15.8755 18.4034 14.8752L17.4035 14.887ZM19.0574 17.82C19.8234 18.2425 20.815 18.4274 22.1112 18.451L22.1294 17.4512C20.8999 17.4288 20.0985 17.2522 19.5404 16.9444L19.0574 17.82ZM22.1112 18.451C22.8856 18.4651 23.6263 18.1816 24.1934 17.6539L23.5122 16.9218C23.1347 17.273 22.6448 17.4605 22.1294 17.4512L22.1112 18.451ZM24.1934 17.6539C24.7609 17.126 25.0966 16.4079 25.1384 15.6345L24.1398 15.5806C24.112 16.0955 23.89 16.5704 23.5122 16.9218L24.1934 17.6539ZM25.1384 15.6341L25.1397 15.609L24.1411 15.5559L24.1398 15.581L25.1384 15.6341ZM25.1397 15.6091C25.1408 15.5883 25.1413 15.568 25.1414 15.5485L24.1414 15.5465C24.1414 15.5503 24.1413 15.5534 24.1411 15.5557L25.1397 15.6091ZM25.1414 15.5475C25.1414 14.0403 24.4792 12.6174 23.2817 11.4317L22.5781 12.1424C23.6199 13.1738 24.1414 14.3515 24.1414 15.5475L25.1414 15.5475ZM23.2817 11.4317C21.2608 9.43088 17.9147 8.27976 14.3579 8.27978L14.3579 9.27978C17.7321 9.27976 20.795 10.377 22.5781 12.1424L23.2817 11.4317ZM14.3579 8.27978C13.6804 8.27978 12.9637 8.32951 12.2276 8.42668L12.3585 9.41808C13.0557 9.32604 13.7285 9.27978 14.3579 9.27978L14.3579 8.27978ZM8.84588 9.30378C7.46218 9.85351 6.30888 10.5656 5.434 11.4318L6.13755 12.1424C6.89607 11.3915 7.92606 10.7452 9.2151 10.2331L8.84588 9.30378ZM5.43317 11.4326C5.4246 11.4411 5.41553 11.4501 5.40635 11.4593L6.11346 12.1664C6.12154 12.1584 6.12964 12.1503 6.13838 12.1416L5.43317 11.4326ZM5.40635 11.4593C4.22626 12.6394 3.57435 14.0521 3.57432 15.5475L4.57432 15.5475C4.57434 14.3607 5.08778 13.1921 6.11346 12.1664L5.40635 11.4593ZM3.57432 15.5485C3.57436 15.5681 3.57487 15.5886 3.57605 15.6101L4.57453 15.5548C4.57442 15.553 4.57433 15.5503 4.57432 15.5465L3.57432 15.5485ZM3.57599 15.6089L3.57732 15.6341L4.57593 15.5813L4.57459 15.556L3.57599 15.6089ZM3.57735 15.6346C3.61909 16.4081 3.9552 17.1264 4.52235 17.654L5.20348 16.9219C4.82602 16.5707 4.60368 16.0955 4.5759 15.5807L3.57735 15.6346ZM9.03049 9.76845C9.18602 10.2436 9.18602 10.2436 9.18602 10.2436C9.18603 10.2436 9.18603 10.2436 9.18604 10.2436C9.18607 10.2436 9.18611 10.2436 9.18617 10.2436C9.18629 10.2436 9.18648 10.2435 9.18673 10.2434C9.18725 10.2432 9.18804 10.243 9.1891 10.2426C9.19121 10.2419 9.1944 10.2409 9.19862 10.2395C9.20705 10.2368 9.21957 10.2327 9.23578 10.2274C9.2682 10.2169 9.31534 10.2017 9.37395 10.1828C9.49122 10.1451 9.65414 10.0931 9.83671 10.036C10.2048 9.92099 10.6424 9.7885 10.9479 9.70928L10.6968 8.7413C10.3653 8.82728 9.90694 8.96637 9.53835 9.08159C9.35258 9.13966 9.18699 9.1925 9.06782 9.23082C9.00821 9.24999 8.96016 9.26554 8.92694 9.27633C8.91033 9.28172 8.89741 9.28593 8.88862 9.2888C8.88422 9.29023 8.88085 9.29133 8.87856 9.29208C8.87741 9.29245 8.87653 9.29274 8.87593 9.29294C8.87563 9.29303 8.8754 9.29311 8.87524 9.29316C8.87516 9.29319 8.8751 9.29321 8.87505 9.29323C8.87503 9.29323 8.87501 9.29324 8.875 9.29324C8.87498 9.29325 8.87497 9.29325 9.03049 9.76845ZM10.9479 9.70928C11.2509 9.6307 11.6063 9.55734 11.8905 9.50299C12.0316 9.476 12.1533 9.45408 12.2394 9.43893C12.2825 9.43136 12.3166 9.42549 12.3398 9.42154C12.3514 9.41957 12.3603 9.41808 12.3662 9.4171C12.3691 9.4166 12.3713 9.41624 12.3727 9.41601C12.3734 9.41589 12.3739 9.4158 12.3742 9.41575C12.3744 9.41573 12.3745 9.41571 12.3745 9.4157C12.3746 9.41569 12.3746 9.41569 12.3746 9.41569C12.3746 9.41569 12.3746 9.41569 12.3746 9.41569C12.3746 9.41569 12.3746 9.4157 12.2931 8.92238C12.2116 8.42907 12.2116 8.42907 12.2115 8.42907C12.2115 8.42907 12.2115 8.42908 12.2115 8.42908C12.2114 8.42909 12.2114 8.4291 12.2113 8.42911C12.2112 8.42914 12.211 8.42917 12.2107 8.42921C12.2102 8.42929 12.2095 8.42941 12.2086 8.42956C12.2068 8.42985 12.2043 8.43028 12.201 8.43084C12.1943 8.43195 12.1846 8.43358 12.1722 8.4357C12.1473 8.43993 12.1113 8.44611 12.0663 8.45403C11.9762 8.46986 11.8496 8.49269 11.7027 8.52078C11.4109 8.57658 11.0309 8.65467 10.6968 8.7413L10.9479 9.70928Z" fill="white"/>
</g>
<defs>
<clipPath id="clip0_9_1480">
<rect width="20" height="20" fill="white" transform="translate(28.5 15) rotate(135)"/>
</clipPath>
</defs>
</svg>
