<svg width="16" height="16" viewBox="0 0 16 16" fill="none" xmlns="http://www.w3.org/2000/svg">
<path fill-rule="evenodd" clip-rule="evenodd" d="M16 8C16 8.57565 15.5339 9.04348 14.9564 9.04348H9.04272V14.9565C9.04272 15.5322 8.57658 16 7.99913 16C7.42168 16 6.95728 15.5322 6.95728 14.9565V9.04348H1.04185C0.464398 9.04348 0 8.57565 0 8C0 7.42435 0.464398 6.95652 1.04185 6.95652H6.95728V1.04348C6.95728 0.467826 7.42168 0 7.99913 0C8.57658 0 9.04272 0.467826 9.04272 1.04348V6.95652H14.9564C15.5339 6.95652 16 7.42435 16 8Z" fill="white"/>
</svg>
