<svg width="18" height="18" viewBox="0 0 18 18" fill="none" xmlns="http://www.w3.org/2000/svg">
<path d="M3 9C2.99949 7.67876 3.43509 6.3943 4.23922 5.34595C5.04335 4.2976 6.17103 3.54398 7.44726 3.20206C8.72349 2.86014 10.0769 2.94903 11.2974 3.45494C12.518 3.96085 13.5374 4.85548 14.1975 6M10.5 6H14.25V2.25" stroke="white" stroke-linecap="round" stroke-linejoin="round"/>
<path d="M15 9C15.0005 10.3212 14.5649 11.6057 13.7608 12.654C12.9566 13.7024 11.829 14.456 10.5527 14.7979C9.27651 15.1399 7.92311 15.051 6.70257 14.5451C5.48203 14.0392 4.4626 13.1445 3.8025 12M7.5 12H3.75V15.75" stroke="white" stroke-linecap="round" stroke-linejoin="round"/>
</svg>
