<svg width="20" height="20" viewBox="0 0 20 20" fill="none" xmlns="http://www.w3.org/2000/svg">
<path fill-rule="evenodd" clip-rule="evenodd" d="M11.5361 18.5654C11.449 18.7832 11.2579 18.81 11.1797 18.8119C11.0866 18.801 10.9084 18.7931 10.8134 18.5812L8.14206 12.6964L17.7698 3.07003L11.5361 18.5654ZM1.41827 9.1866C1.20441 9.09057 1.1856 8.8985 1.18758 8.82028C1.18956 8.74207 1.21629 8.55099 1.43412 8.46386L16.9302 2.23047L7.30344 11.8578L1.41827 9.1866ZM19.9569 0.37411L19.955 0.368169C19.947 0.351338 19.9401 0.334507 19.9312 0.317676C19.9233 0.302826 19.9134 0.285995 19.9025 0.270154C19.9015 0.268174 19.8995 0.265203 19.8975 0.263223C19.8896 0.250353 19.8807 0.237482 19.8708 0.226591C19.8678 0.223621 19.8649 0.219661 19.8619 0.215701C19.85 0.20184 19.8391 0.187979 19.8253 0.175108C19.8114 0.161247 19.7975 0.148377 19.7837 0.137486C19.7807 0.135506 19.7777 0.132536 19.7748 0.130556C19.7629 0.119665 19.749 0.109765 19.7342 0.100854C19.7332 0.099864 19.7322 0.0988739 19.7302 0.0978838C19.5698 -0.00805221 19.3659 -0.0308235 19.1847 0.0434307L0.99154 7.36193C0.393518 7.60152 0.0133192 8.15001 0.00044787 8.79454C-0.0144037 9.43808 0.341043 10.0034 0.927184 10.2697L6.98265 13.0171L9.73018 19.0723C9.99058 19.6475 10.5401 20 11.1688 20C11.1817 20 11.1936 20 11.2054 19.999C11.849 19.9861 12.3985 19.606 12.6381 19.008L19.9569 0.815675C19.9639 0.798844 19.9698 0.782013 19.9738 0.765182C19.9748 0.764192 19.9748 0.763202 19.9748 0.762212C19.9807 0.744391 19.9847 0.72558 19.9886 0.708749V0.707759C20.0114 0.595882 19.9995 0.479056 19.9569 0.37411Z" fill="#1A1D1E"/>
</svg>
