<svg width="16" height="15" viewBox="0 0 16 15" fill="none" xmlns="http://www.w3.org/2000/svg">
<path d="M15.7821 3.04977C15.2529 1.22653 13.7808 0.000759829 12.1198 0.000759829C11.0616 0.000759829 9.99429 0.446733 9.1908 1.22509C8.48601 1.90729 8.04507 3.05364 8.02077 3.11724C8.01383 3.13844 8.00688 3.15813 7.99994 3.17479C7.99161 3.15434 7.98258 3.13011 7.97355 3.1021C7.9548 3.05364 7.51388 1.90729 6.80906 1.22433C6.00567 0.445973 4.93847 0 3.88007 0C2.2184 0 0.74772 1.22509 0.218521 3.04901C-0.717506 6.27537 1.38925 10.2443 5.8527 13.6659C6.45681 14.1292 7.51437 14.8417 7.55951 14.8728C7.68102 14.9546 7.83726 15 7.99975 15C8.16224 15 8.31848 14.9546 8.44069 14.8728C8.48583 14.8425 9.54268 14.1293 10.1468 13.6659C14.611 10.2451 16.7171 6.27595 15.7817 3.04959L15.7821 3.04977Z" fill="white"/>
</svg>
