<svg width="70" height="70" viewBox="0 0 70 70" fill="none" xmlns="http://www.w3.org/2000/svg">
<rect width="70" height="70" rx="20" fill="#DDFFE9"/>
<path d="M34.9999 14C23.4022 14 14 23.402 14 34.9996C14 46.5986 23.4022 56 34.9999 56C46.598 56 56 46.5986 56 34.9996C56 23.402 46.598 14 34.9999 14Z" fill="#1ED760"/>
<path d="M44.1691 43.8326C43.7974 44.4421 43.0038 44.633 42.3964 44.2616C37.5395 41.2931 31.4261 40.6227 24.2265 42.2672C23.5327 42.4262 22.8411 41.9915 22.683 41.298C22.524 40.6042 22.9572 39.9127 23.6525 39.7543C31.5313 37.9533 38.2895 38.7283 43.7413 42.0596C44.3492 42.4309 44.5406 43.225 44.1691 43.8326Z" fill="white"/>
<path d="M46.6999 38.2006C46.2322 38.9596 45.2397 39.1977 44.4817 38.7317C38.9236 35.3151 30.4475 34.3252 23.8715 36.3213C23.0189 36.5789 22.1182 36.0983 21.8591 35.2469C21.6022 34.3943 22.0831 33.4952 22.9344 33.236C30.4466 30.9563 39.7853 32.0603 46.1694 35.9837C46.9274 36.4505 47.1661 37.4433 46.6999 38.2006Z" fill="white"/>
<path d="M46.9183 32.3362C40.2512 28.3767 29.2539 28.0126 22.8893 29.9444C21.867 30.2545 20.7862 29.6776 20.4767 28.6556C20.167 27.6328 20.7432 26.5527 21.766 26.2421C29.0723 24.0244 41.2177 24.4526 48.893 29.0087C49.8125 29.5546 50.1138 30.7418 49.5689 31.6596C49.0236 32.579 47.8354 32.882 46.9183 32.3362Z" fill="white"/>
</svg>
