<svg width="50" height="50" viewBox="0 0 50 50" fill="none" xmlns="http://www.w3.org/2000/svg">
<rect width="50" height="50" rx="15" fill="#FFD4E5"/>
<g clip-path="url(#clip0_9_1129)">
<path d="M25 9.00098C16.7153 9.00098 10 15.7172 10 24.001C10 32.2847 16.7153 39.0009 25 39.0009C33.2847 39.0009 40 32.2846 40 24.0009C40 15.7171 33.2846 9.00098 25 9.00098ZM34.8427 16.2609C36.4551 18.3085 37.4424 20.8659 37.5202 23.6493C34.1546 23.0596 31.2521 23.0418 28.7442 23.4393C28.4264 22.7099 28.0993 22.0012 27.7637 21.315C30.4534 20.2088 32.8656 18.5953 34.8427 16.2609ZM33.1167 14.4685C31.3505 16.6125 29.1333 18.0881 26.6246 19.0922C25.0186 16.1167 23.3668 13.6369 22.0469 11.8266C22.9947 11.595 23.9818 11.4714 24.9991 11.4714C28.0956 11.4703 30.9286 12.6019 33.1167 14.4685ZM19.6141 12.69C20.89 14.3934 22.5878 16.8609 24.2481 19.8862C20.7288 20.8528 16.7922 21.1134 12.8078 21.1247C13.6872 17.3972 16.2315 14.3072 19.6141 12.69ZM12.4712 23.9998L12.4815 23.5948H12.5489C17.0133 23.5948 21.4458 23.3024 25.4198 22.1314C25.7161 22.7342 26.0077 23.3529 26.2927 23.9895C21.0643 25.5224 17.8046 28.9629 15.5706 32.2367C13.6431 30.0346 12.4712 27.1518 12.4712 23.9998ZM17.3968 33.9487C19.5118 30.7631 22.4593 27.6112 27.2556 26.2874C28.3759 29.1581 29.2899 32.2911 29.7737 35.5817C28.3018 36.193 26.6903 36.5305 25.0009 36.5305C22.1424 36.5305 19.5062 35.5677 17.3968 33.9487ZM32.0781 34.3331C31.5653 31.3265 30.7253 28.4587 29.7137 25.8C31.9056 25.5216 34.4255 25.5891 37.3467 26.1263C36.7627 29.5217 34.8109 32.4553 32.0781 34.3331Z" fill="#EA4C89"/>
</g>
<defs>
<clipPath id="clip0_9_1129">
<rect width="30" height="30" fill="white" transform="translate(10 9)"/>
</clipPath>
</defs>
</svg>
